<svg xmlns="http://www.w3.org/2000/svg" width="496" height="203" viewBox="0 0 496 203">
  <g fill="none">
    <path fill="#FFF" d="M489.3328,160.783 C489.3328,181.051 472.7498,197.634 452.4818,197.634 L44.2788,197.634 C24.0108,197.634 7.4288,181.051 7.4288,160.783 L7.4288,41.151 C7.4288,20.883 24.0108,4.3 44.2788,4.3 L452.4818,4.3 C472.7498,4.3 489.3328,20.883 489.3328,41.151 L489.3328,160.783 Z"/>
    <path fill="#E80724" d="M260.401544,56.1686555 C260.289025,56.5320809 260.165922,56.9004974 260.0343,57.2755 C259.0153,60.0075 256.7743,60.8275 254.4093,61.2745 C252.1393,61.7755 249.7623,62.3755 248.2603,64.7525 C246.1903,68.0305 245.1523,90.0895 244.9323,91.8035 L243.4743,103.1245 C238.9183,138.5035 226.2563,155.9935 196.1363,158.0035 C188.6363,158.5035 185.1513,158.2495 177.6363,158.0035 C162.7053,157.5075 137.6873,148.4645 137.8993,131.7065 L138.0113,122.8785 L143.6363,74.3775 C143.8863,69.7525 144.6543,69.3235 143.6363,64.8775 C143.2263,63.0895 141.4483,62.7715 139.6333,62.3915 C137.5353,61.9525 135.3873,61.4305 135.2433,58.4575 C135.2433,58.4575 135.22844,57.3891227 135.309836,55.9430571 C135.144085,56.6640226 134.922162,57.3973951 134.6574,58.1496 C133.6414,60.8826 131.4064,61.1146 129.0394,61.5616 C127.6834,61.8186 126.2834,62.1466 125.0444,63.0576 C123.3454,64.2576 122.2614,68.8776 121.4564,74.0156 C120.1744,82.5536 119.8524,94.4076 115.8864,118.1286 C111.0324,147.1506 82.0544,158.1506 63.7824,158.1506 C63.7824,158.1506 57.5324,158.5256 54.5324,158.1506 C41.1574,157.6506 21.5094,149.1616 21.5094,132.9956 C21.5094,119.2006 33.1574,111.9006 42.7824,111.7756 C45.5324,111.6506 45.9074,111.7756 48.2824,112.1506 C56.9074,113.5256 61.6564,120.8906 61.1644,126.3006 C60.6494,131.9646 56.3404,133.5606 57.7614,136.2536 C59.1574,138.9006 62.7124,139.0486 63.6364,138.8786 C69.9454,137.7046 73.6294,130.0366 77.3874,107.2456 C78.6724,99.5316 80.4074,80.7346 80.4074,77.9006 C80.4074,75.0656 81.8044,68.0466 80.6574,64.2746 C79.1574,63.0246 74.7294,63.5086 72.7514,63.2126 C70.6754,62.8666 68.3984,60.3256 68.5114,58.2526 C68.5114,58.2526 68.2824,55.2746 68.7824,53.2746 C68.9674,46.4556 77.7634,42.7506 96.6994,42.3546 L115.7824,42.3996 C122.5324,42.7746 125.7974,43.9366 129.1224,45.2376 C131.3954,46.1276 132.9074,46.7756 134.5324,48.7746 C135.234174,50.1241648 135.570214,51.4397859 135.631776,52.7654401 C135.823288,51.5466711 136.108348,50.3724038 136.5323,49.5245 C137.4723,47.2135 139.4313,45.1555 144.2383,43.7445 C147.7503,42.7145 152.7813,42.0285 160.0443,41.8405 C171.7123,41.5435 172.7293,41.8995 178.0693,42.0975 C185.4853,42.3945 199.4413,43.1625 199.4413,52.6555 C199.4413,66.6465 184.6373,52.6295 182.4463,83.2975 C181.4163,97.7175 178.9113,112.6635 178.9073,113.9005 C178.9073,113.9005 178.7493,117.5955 178.8103,120.6375 C178.8163,120.9675 178.8763,122.5385 178.9373,123.0155 C179.5833,128.0715 185.0213,134.5135 190.8133,135.6125 C191.3843,135.7205 192.8873,135.9115 193.4393,135.9585 C194.4813,136.0475 196.2173,136.0675 197.5623,135.9885 C198.1493,135.9525 200.4173,135.6545 200.7283,135.5995 C211.1903,133.7345 220.6983,115.3235 222.0113,88.8775 C222.6533,75.4795 224.0323,66.8995 222.2613,64.6275 C218.7613,61.7525 209.5113,60.9175 209.5113,51.1275 C209.5113,43.2175 219.9243,42.0975 226.9943,42.0975 L243.9893,42.0975 C248.1293,42.0975 254.6873,44.0535 254.6873,44.0535 C256.9593,44.9435 259.8433,47.1055 260.3443,48.3225 C260.70441,49.1970524 260.925331,50.0351839 261.032975,50.8569135 C261.197776,50.1685168 261.403255,49.5370906 261.6594,49.0248 C262.5464,46.8388 264.1514,44.9818 268.3774,43.5578 C269.2134,43.2758 271.2494,42.8728 271.5154,42.8348 C273.0184,42.6178 275.1614,42.4328 277.4644,42.3548 C288.4404,41.9598 298.3914,41.7618 311.1964,42.3548 C322.4684,42.8988 324.6814,47.5898 324.6354,53.1278 C324.5344,65.7748 313.5104,57.0928 309.6354,65.8778 C308.1464,69.2588 306.5614,86.9028 306.5614,86.9028 C306.2654,91.9458 303.2504,116.8318 302.8854,124.3788 C302.8854,127.2128 302.5104,126.5038 302.7614,130.7538 C303.2604,135.2538 308.3804,136.5468 314.2874,137.1148 C337.7604,139.3788 329.5574,116.7728 347.5044,116.7728 C356.9484,116.7728 356.7614,127.1288 355.0104,138.3788 L389.6354,80.8778 C401.7484,61.9418 392.5224,41.5028 417.8864,41.5028 C440.7774,41.5028 445.4754,65.5818 451.2614,90.3778 C453.8864,101.6278 459.1364,123.1288 459.1364,123.1288 C464.6594,150.0248 473.7844,135.2748 474.2604,148.1288 C474.5674,156.3298 465.3344,158.5308 456.3854,158.8788 C445.8064,159.2728 434.3864,159.0488 427.7604,158.7538 C425.3874,158.6538 412.6364,158.1168 412.6364,150.5038 C412.6364,140.4178 425.6334,143.4138 423.1364,135.5038 C422.3864,133.1288 420.3234,131.3998 414.6354,131.2538 C408.3074,131.1058 405.0104,131.2538 397.8854,131.2538 C394.7584,131.2538 384.7604,130.6288 384.2604,137.5038 C383.8564,143.0778 394.7604,138.7458 394.7604,149.1288 C394.7604,157.4838 377.0654,159.2948 373.0104,159.2538 L361.1354,159.1288 C352.9304,159.0408 348.8864,157.5038 346.1354,156.0038 C344.7034,155.2228 344.0344,157.7748 341.4094,158.5248 C338.5344,158.8998 336.3974,158.5488 336.3974,158.5488 C334.9144,158.5548 330.8104,157.0638 329.4764,157.0638 L264.2144,157.0638 C263.5804,157.0638 246.0074,160.4298 246.2774,149.7208 C246.2914,149.1788 246.0004,145.9058 246.8154,143.0348 C248.2484,137.2148 256.0674,141.1448 260.8854,129.0038 C264.2974,120.4488 265.0894,112.8558 265.6374,107.8788 C267.0104,95.3778 268.7844,79.7748 269.3874,75.6278 C269.5104,72.7528 271.2844,67.5248 269.2604,64.7528 C267.9194,63.5968 266.2464,62.9318 264.7844,62.3998 C261.8074,61.1578 260.5124,60.9308 260.3694,57.9578 C260.3694,57.9578 260.359432,57.2326878 260.401544,56.1686555 Z M43.6273,0.9929 L452.5863,0.9929 C476.0713,0.9929 495.1083,20.0289 495.1083,43.5119 L495.1083,159.9729 C495.1083,183.4559 476.0713,202.4919 452.5863,202.4919 L43.6273,202.4919 C20.1443,202.4919 1.1073,183.4559 1.1073,159.9729 L1.1073,43.5119 C1.1073,20.0289 20.1443,0.9929 43.6273,0.9929 Z M43.6273,12.3309 C26.4063,12.3309 12.4463,26.2909 12.4463,43.5119 L12.4463,159.9729 C12.4463,177.1929 26.4063,191.1539 43.6273,191.1539 L452.5863,191.1539 C469.8093,191.1539 483.7683,177.1929 483.7683,159.9729 L483.7683,43.5119 C483.7683,26.2909 469.8093,12.3309 452.5863,12.3309 L43.6273,12.3309 Z M411.4094,84.8998 C407.1784,86.4648 401.1644,97.7968 400.2844,105.7748 C399.8224,109.9588 406.2664,110.8508 409.3584,110.7848 C409.4624,110.7828 410.0124,110.8078 410.1714,110.8088 C413.3694,110.8288 420.1194,112.0268 420.1194,104.6698 C420.1194,99.8248 415.3504,83.4408 411.4094,84.8998 Z"/>
    <path fill="#000" d="M259.67327,59.7965274 C258.296201,61.335029 256.387296,61.9104226 254.5933,62.2502 C252.2513,62.7672 250.3373,63.3222 249.0993,65.2822 C247.5623,67.7162 246.5303,83.1022 246.1423,88.8952 C246.0293,90.5632 245.9623,91.5692 245.9163,91.9292 L244.4583,103.2522 C239.6133,140.8802 225.6323,157.0302 196.2023,158.9942 C193.1973,159.1942 190.7273,159.2832 188.1943,159.2832 C185.7683,159.2832 183.5013,159.2032 180.6303,159.1002 L177.6043,158.9952 C163.7453,158.5352 136.6773,149.7992 136.9073,131.6942 L137.0253,122.7642 L142.6503,74.2632 C142.7253,72.8432 142.8593,71.7642 142.9673,70.8962 C143.2013,69.0192 143.3293,67.9842 142.6693,65.0992 C142.4383,64.0902 141.5553,63.8062 139.5953,63.3972 L139.4303,63.3632 C137.791862,63.0205202 135.464004,62.5333065 134.591479,60.2408705 C133.285507,61.7896301 131.396149,62.1365022 129.6821,62.4515 L129.2241,62.5365 C128.0001,62.7685 126.7141,63.0615 125.6331,63.8565 C124.8131,64.4355 123.6091,66.6825 122.4361,74.1685 C122.0031,77.0585 121.6841,80.2895 121.2811,84.3795 C120.5211,92.0915 119.4801,102.6515 116.8641,118.2925 C111.8521,148.2635 82.3741,159.1425 63.7821,159.1425 C63.8141,159.1425 61.0031,159.3095 58.2641,159.3095 C56.6321,159.3095 55.3351,159.2505 54.4091,159.1345 C40.7931,158.6295 20.5171,149.9655 20.5171,132.9955 C20.5171,119.2725 31.8311,110.9255 42.7701,110.7835 C45.2581,110.6675 45.9721,110.7745 47.7701,111.0635 L48.4371,111.1695 C57.3401,112.5895 62.7161,120.1865 62.1531,126.3905 C61.8711,129.4845 60.5301,131.4915 59.5511,132.9575 C58.5351,134.4805 58.2401,135.0345 58.6381,135.7905 C59.7381,137.8745 62.6381,137.9355 62.9651,137.9355 C63.1731,137.9355 63.3421,137.9235 63.4561,137.9035 C69.3751,136.8015 72.8851,128.4495 76.4081,107.0845 C77.6761,99.4725 79.4151,80.8035 79.4151,77.9005 C79.4151,76.9875 79.5461,75.7245 79.6971,74.2625 C80.0001,71.3285 80.4111,67.3595 79.7981,64.8895 C78.8701,64.3985 76.7531,64.3595 75.1711,64.3305 C74.2061,64.3135 73.2931,64.2975 72.6051,64.1935 C69.9651,63.7535 67.4281,60.7795 67.5171,58.2665 C67.4861,57.8125 67.3281,55.1225 67.7941,53.1395 C68.0871,45.6155 77.5371,41.7625 96.6791,41.3635 L115.7851,41.4075 C122.5551,41.7825 125.8601,42.8965 129.4841,44.3135 C131.9481,45.2785 133.5701,46.0175 135.3021,48.1485 L135.4131,48.3175 C135.519514,48.5221881 135.617939,48.725926 135.708768,48.9286747 C136.936507,46.0535573 139.573431,44.0795774 143.9593,42.7932 C147.8033,41.6652 153.0563,41.0282 160.0183,40.8482 C163.0313,40.7722 165.4913,40.7342 167.5403,40.7342 C170.9343,40.7342 172.8073,40.8382 174.7893,40.9462 C175.7833,41.0012 176.8183,41.0582 178.1063,41.1062 C184.7893,41.3732 200.4343,42.0002 200.4343,52.6552 C200.4343,59.0012 197.4673,60.2782 194.3273,61.6312 C190.0353,63.4802 184.6923,65.7812 183.4363,83.3682 C182.7053,93.6052 181.2293,104.1352 180.4363,109.7922 C180.1493,111.8362 179.9013,113.6012 179.8993,113.9032 C179.8973,113.9792 179.7433,117.6432 179.8023,120.6182 C179.8093,120.9872 179.8703,122.4892 179.9213,122.8892 C180.4943,127.3682 185.5623,133.6062 190.9983,134.6372 C191.5103,134.7342 192.9843,134.9242 193.5233,134.9702 C194.5043,135.0542 196.1983,135.0742 197.5043,134.9982 C198.0383,134.9652 200.2603,134.6742 200.5553,134.6222 C209.6753,132.9972 219.6343,116.7442 221.0203,88.8282 C221.2043,84.9992 221.4463,81.5772 221.6603,78.5582 C222.1263,71.9842 222.4963,66.7662 221.5363,65.3182 C220.7123,64.6742 219.4753,64.0962 218.1673,63.4852 C214.0953,61.5842 208.5193,58.9792 208.5193,51.1282 C208.5193,44.4772 214.7343,41.1052 226.9943,41.1052 L243.9893,41.1052 C248.2253,41.1052 254.6973,43.0212 254.9703,43.1032 C257.277266,44.0026391 260.326752,46.1490737 261.162071,47.7334489 C262.389449,45.3855127 264.515595,43.8118138 268.0609,42.6172 C268.9979,42.3012 271.0999,41.8922 271.3749,41.8532 C273.0059,41.6172 275.2139,41.4392 277.4319,41.3632 C282.5759,41.1782 288.7179,40.9882 295.2429,40.9882 C300.5559,40.9882 305.7889,41.1112 311.2419,41.3642 C321.2549,41.8472 325.6909,45.4782 325.6279,53.1362 C325.5639,60.9872 321.3529,61.5702 317.6379,62.0852 C314.7649,62.4832 312.0519,62.8582 310.5429,66.2782 C309.3759,68.9292 307.9859,82.1292 307.5499,86.9912 C307.4239,89.1352 306.8109,94.8182 306.1019,101.3992 C305.1569,110.1772 304.0849,120.1272 303.8769,124.4262 C303.8779,125.5462 303.8139,126.1602 303.7589,126.7012 C303.6759,127.5052 303.6039,128.2012 303.7519,130.6952 C304.0979,133.8042 307.2779,135.4442 314.3829,136.1282 C315.4479,136.2302 316.4759,136.2822 317.4349,136.2822 C326.9969,136.2822 329.8399,131.2912 332.8509,126.0062 C335.7139,120.9792 338.6749,115.7812 347.5049,115.7812 C350.4249,115.7812 352.7029,116.7132 354.2769,118.5522 C357.1229,121.8752 357.2709,127.7382 356.6289,133.7682 L388.7859,80.3662 C393.0129,73.7572 394.6039,66.9172 396.0089,60.8812 C398.5519,49.9502 400.7479,40.5102 417.8869,40.5102 C440.7119,40.5102 445.9919,63.2782 451.5839,87.3822 C451.5839,87.3822 460.0479,122.6782 460.1009,122.8932 C463.2199,138.0812 467.3559,139.4752 470.3759,140.4942 C473.1859,141.4412 475.0439,142.4812 475.2519,148.0912 C475.5249,155.4112 469.1909,159.3742 456.4239,159.8702 C452.6439,160.0102 448.5139,160.0832 444.1469,160.0832 C438.5259,160.0832 432.5379,159.9602 427.7169,159.7452 C417.3529,159.3092 411.6439,156.0282 411.6439,150.5042 C411.6439,144.7352 415.4889,142.7742 418.5779,141.1992 C421.6709,139.6222 423.1159,138.7342 422.1899,135.8022 C421.6919,134.2242 420.3809,132.3942 414.6099,132.2452 C410.5859,132.1512 396.4239,132.2312 396.0149,132.2312 C388.9349,132.2312 385.5159,133.9292 385.2499,137.5762 C385.1439,139.0302 385.9989,139.4262 388.4689,140.1872 C391.5429,141.1342 395.7529,142.4322 395.7529,149.1292 C395.7529,158.3582 377.9229,160.2462 373.1479,160.2462 L361.1249,160.1212 C352.5259,160.0282 348.3439,158.3382 345.6609,156.8752 C345.4679,156.8772 345.0609,157.2592 344.7939,157.5122 C344.1029,158.1652 343.1579,159.0572 341.6819,159.4792 L341.5369,159.5082 C340.6149,159.6292 339.6729,159.6902 338.7359,159.6902 C337.4669,159.6902 336.5789,159.5782 336.3149,159.5402 C335.4009,159.5162 333.9899,159.1352 332.4989,158.7332 C331.3239,158.4162 329.9919,158.0562 329.4759,158.0562 L264.2149,158.0562 C264.1939,158.0602 264.0589,158.0802 263.8639,158.1062 C262.8769,158.2412 260.5649,158.5572 257.9109,158.5572 C252.9639,158.5572 249.4029,157.4792 247.3299,155.3532 C245.9149,153.9032 245.2279,151.9992 245.2859,149.6952 C245.2879,149.6212 245.1339,145.3282 245.8619,142.7642 C246.5699,139.8822 248.6679,138.9912 250.8889,138.0472 C253.7509,136.8312 257.3119,135.3172 259.9639,128.6372 C263.2679,120.3522 264.0839,112.9352 264.6229,108.0272 C264.6229,108.0272 268.5979,73.7302 268.7659,72.7002 C269.1689,70.2142 269.6709,67.1312 268.5219,65.4272 C267.3209,64.4262 265.7909,63.8212 264.4449,63.3322 L263.6209,62.9942 C261.685852,62.206955 260.267679,61.6304266 259.67327,59.7965274 Z M259.415227,55.9976912 C259.476887,54.5519308 259.633396,52.562135 260.024073,50.8277624 C259.920817,50.1327392 259.727478,49.4290548 259.4273,48.7002 C259.1083,47.9252 256.5913,45.8642 254.3263,44.9772 C254.3143,44.9772 247.9263,43.0892 243.9893,43.0892 L226.9943,43.0892 C216.0513,43.0892 210.5033,45.7942 210.5033,51.1282 C210.5033,57.7152 215.0383,59.7912 219.0073,61.6872 C220.3093,62.3092 221.7093,63.0272 223.0433,64.0182 C224.3773,65.0082 224.2233,70.4732 223.6403,78.6982 C223.4263,81.7072 223.1853,85.1172 223.0023,88.9252 C221.7333,114.4802 212.4393,134.5192 200.9023,136.5762 C200.5403,136.6392 198.2483,136.9412 197.6213,136.9782 C196.2273,137.0592 194.4273,137.0392 193.3553,136.9472 C192.8053,136.9002 191.2493,136.7052 190.6283,136.5872 C184.2013,135.3682 178.6363,128.4822 177.9533,123.1412 C177.8853,122.6052 177.8243,120.9772 177.8183,120.6562 C177.7583,117.6192 177.9153,113.8952 177.9163,113.8582 C177.9173,113.4842 178.0763,112.3272 178.4703,109.5162 C179.2603,103.8822 180.7313,93.3962 181.4573,83.2272 C182.7993,64.4362 189.0083,61.7612 193.5433,59.8092 C196.4973,58.5362 198.4493,57.6952 198.4493,52.6552 C198.4493,44.9452 188.1273,43.4932 178.0293,43.0882 C176.7313,43.0412 175.6853,42.9832 174.6803,42.9282 C172.7263,42.8202 170.8793,42.7182 167.5403,42.7182 C165.5083,42.7182 163.0653,42.7552 160.0693,42.8322 C153.2823,43.0072 148.1943,43.6172 144.5183,44.6972 C139.5343,46.1592 138.1243,48.2452 137.4513,49.8982 C137.077373,50.6488519 136.813565,51.7176239 136.629531,52.8609081 C136.66936,53.9901877 136.529524,55.0742569 136.295429,56.1046602 C136.240679,57.0757474 136.228288,57.9170265 136.2353,58.4442 C136.3343,60.4652 137.4623,60.9242 139.8363,61.4212 L140.0003,61.4552 C141.8103,61.8322 144.0643,62.3012 144.6033,64.6562 C145.3423,67.8822 145.1803,69.1792 144.9373,71.1412 C144.8273,72.0222 144.7033,73.0202 144.6273,74.4312 L139.0023,122.9422 L138.8913,131.7192 C138.6793,148.4682 164.4673,156.5732 177.6693,157.0122 L180.7013,157.1172 C183.5523,157.2182 185.8033,157.2982 188.1943,157.2982 C190.6813,157.2982 193.1103,157.2112 196.0703,157.0132 C224.3443,155.1272 237.7933,139.4772 242.4903,102.9982 L243.9483,91.6762 C243.9863,91.3762 244.0643,90.2222 244.1623,88.7622 C244.9173,77.5022 245.8353,66.7352 247.4213,64.2232 C249.2003,61.4072 252.0873,60.7712 254.1953,60.3062 C256.5643,59.8572 258.2903,59.1152 259.1043,56.9282 C259.215295,56.6120969 259.31931,56.3022945 259.415227,55.9976912 Z M452.472,203.4841 L43.512,203.4841 C19.519,203.4841 0,183.9651 0,159.9721 L0,43.5111 C0,19.5191 19.519,0.0001 43.512,0.0001 L452.472,0.0001 C476.466,0.0001 495.985,19.5191 495.985,43.5111 L495.985,159.9721 C495.985,183.9651 476.466,203.4841 452.472,203.4841 Z M43.512,1.9851 C20.614,1.9851 1.984,20.6141 1.984,43.5111 L1.984,159.9721 C1.984,182.8711 20.614,201.5001 43.512,201.5001 L452.472,201.5001 C475.371,201.5001 494.001,182.8711 494.001,159.9721 L494.001,43.5111 C494.001,20.6141 475.371,1.9851 452.472,1.9851 L43.512,1.9851 Z M452.472,192.1461 L43.512,192.1461 C25.772,192.1461 11.339,177.7131 11.339,159.9721 L11.339,43.5111 C11.339,25.7711 25.772,11.3391 43.512,11.3391 L452.472,11.3391 C470.213,11.3391 484.645,25.7711 484.645,43.5111 L484.645,159.9721 C484.645,177.7131 470.213,192.1461 452.472,192.1461 Z M43.512,13.3231 C26.866,13.3231 13.323,26.8651 13.323,43.5111 L13.323,159.9721 C13.323,176.6191 26.866,190.1621 43.512,190.1621 L452.472,190.1621 C469.119,190.1621 482.661,176.6191 482.661,159.9721 L482.661,43.5111 C482.661,26.8651 469.119,13.3231 452.472,13.3231 L43.512,13.3231 Z M44.4681,112.7205 C44.0211,112.7205 43.4971,112.7365 42.8271,112.7665 C34.3691,112.8765 22.5021,119.2255 22.5021,132.9955 C22.5021,148.6615 41.6371,156.6755 54.5701,157.1585 C55.5001,157.2715 56.7141,157.3245 58.2641,157.3245 C60.9421,157.3245 63.6961,157.1615 63.7231,157.1595 C81.0141,157.1585 110.1331,146.5175 114.9071,117.9645 C117.5121,102.3905 118.5491,91.8675 119.3061,84.1855 C119.7121,80.0665 120.0331,76.8135 120.4751,73.8675 C121.5621,66.9315 122.7571,63.4575 124.4721,62.2465 C125.8731,61.2165 127.4701,60.8495 128.8551,60.5875 L129.3231,60.5005 C131.6551,60.0725 133.0091,59.7355 133.7281,57.8035 C134.9671,54.2815 134.9621,51.8105 133.6981,49.3225 C132.2671,47.5915 130.9471,47.0165 128.7611,46.1615 C125.3051,44.8095 122.1511,43.7475 115.7271,43.3905 L96.6971,43.3465 C79.0091,43.7165 69.9431,47.0655 69.7741,53.3015 L69.7451,53.5155 C69.2891,55.3385 69.4981,58.1485 69.5001,58.1775 L69.5051,58.2415 L69.5021,58.3065 C69.4191,59.8305 71.2691,61.9595 72.9151,62.2345 C73.4591,62.3155 74.3081,62.3305 75.2071,62.3465 C77.4531,62.3875 79.9981,62.4335 81.2931,63.5125 L81.5201,63.7025 L81.6071,63.9865 C82.4631,66.8035 82.0241,71.0525 81.6711,74.4665 C81.5251,75.8735 81.4001,77.0895 81.4001,77.9005 C81.4001,80.8455 79.6451,99.7305 78.3651,107.4085 C74.6311,130.0605 70.8241,138.5505 63.8181,139.8545 C63.5851,139.8975 63.2911,139.9185 62.9651,139.9185 C60.8421,139.9185 58.1301,139.0775 56.8841,136.7165 C55.9001,134.8525 56.9171,133.3285 57.9011,131.8565 C58.8571,130.4245 59.9411,128.8015 60.1761,126.2105 C60.6491,121.0075 55.8171,114.3565 48.1261,113.1295 L47.4541,113.0225 C46.1661,112.8155 45.5781,112.7205 44.4681,112.7205 Z M345.6089,154.8652 C345.9479,154.8652 346.2849,154.9552 346.6109,155.1322 C349.0919,156.4852 352.9849,158.0492 361.1459,158.1362 L373.1479,158.2622 C378.4339,158.2622 393.7679,156.0132 393.7679,149.1292 C393.7679,143.8972 390.7769,142.9752 387.8849,142.0842 C385.6149,141.3842 383.0419,140.5912 383.2709,137.4322 C383.7939,130.2472 392.9919,130.2472 396.0149,130.2472 C396.4329,130.2472 396.8189,130.2522 397.1629,130.2552 L397.8859,130.2612 C400.4589,130.2612 402.5319,130.2422 404.4289,130.2242 C407.7919,130.1932 410.6049,130.1682 414.6589,130.2612 C420.0679,130.4012 423.0609,131.9712 424.0829,135.2052 C425.5549,139.8682 422.3269,141.5142 419.4789,142.9662 C416.6029,144.4332 413.6289,145.9502 413.6289,150.5042 C413.6289,156.5182 423.5409,157.5842 427.8029,157.7622 C432.5989,157.9762 438.5549,158.0982 444.1469,158.0982 C448.4889,158.0982 452.5949,158.0272 456.3489,157.8872 C467.8009,157.4422 473.4939,154.1712 473.2689,148.1662 C473.0969,143.5042 471.9049,143.1022 469.7429,142.3742 C466.2669,141.2022 461.5049,139.5962 458.1649,123.3282 C458.1199,123.1492 452.8919,101.7292 450.2959,90.6032 L449.6509,87.8302 C444.2429,64.5162 439.1349,42.4952 417.8869,42.4952 C402.3229,42.4952 400.4849,50.3952 397.9409,61.3302 C396.5009,67.5222 394.8679,74.5392 390.4719,81.4122 L355.8599,138.8902 L354.0299,138.2262 C355.0669,131.5632 355.8609,123.4522 352.7699,119.8422 C351.5729,118.4452 349.8509,117.7652 347.5049,117.7652 C339.8279,117.7652 337.3929,122.0392 334.5739,126.9882 C331.5629,132.2742 328.1489,138.2662 317.4349,138.2662 C316.4119,138.2662 315.3199,138.2112 314.1919,138.1022 C308.3879,137.5442 302.3729,136.2472 301.7749,130.8632 C301.6139,128.1582 301.6969,127.3512 301.7849,126.4982 C301.8389,125.9802 301.8929,125.4452 301.8929,124.3792 C302.1049,119.9722 303.1819,109.9922 304.1299,101.1872 C304.8369,94.6312 305.4459,88.9702 305.5709,86.8442 C305.6389,86.0872 307.1899,68.9672 308.7269,65.4782 C310.6839,61.0452 314.3889,60.5322 317.3649,60.1202 C320.9809,59.6192 323.5949,59.2572 323.6429,53.1202 C323.6839,48.3582 322.1969,43.8792 311.1479,43.3452 C305.7269,43.0942 300.5239,42.9722 295.2429,42.9722 C288.7489,42.9722 282.6299,43.1612 277.5009,43.3462 C275.3499,43.4192 273.2209,43.5902 271.6569,43.8172 C271.4009,43.8532 269.4349,44.2482 268.6939,44.4972 C264.4929,45.9132 263.2719,47.6902 262.5779,49.3982 C261.5089,51.5442 261.3389,56.2902 261.3609,57.9432 C261.4599,59.9732 262.0179,60.2002 264.3689,61.1572 C264.3689,61.1572 268.4399,62.7352 269.9079,64.0012 L270.0609,64.1682 C271.7799,66.5212 271.1939,70.1242 270.7239,73.0182 C270.5619,74.0102 266.5959,108.2442 266.5959,108.2442 C266.0439,113.2582 265.2109,120.8372 261.8079,129.3712 C258.8509,136.8192 254.6969,138.5852 251.6639,139.8742 C249.4269,140.8242 248.2379,141.4072 247.7789,143.2722 C247.1279,145.5692 247.2719,149.6472 247.2689,149.7462 C247.2249,151.5192 247.7089,152.9002 248.7499,153.9672 C250.4129,155.6722 253.5799,156.5732 257.9109,156.5732 C260.4299,156.5732 262.6479,156.2702 263.5959,156.1402 C263.9329,156.0942 264.1479,156.0722 264.2149,156.0722 L329.4759,156.0722 C330.2549,156.0722 331.5339,156.4182 333.0159,156.8172 C334.2999,157.1642 335.7549,157.5562 336.3889,157.5562 L336.5579,157.5692 C336.5649,157.5712 337.4179,157.7062 338.7359,157.7062 C339.5609,157.7062 340.3919,157.6542 341.2039,157.5512 C342.1789,157.2542 342.8429,156.6262 343.4319,156.0702 C344.0589,155.4772 344.7079,154.8652 345.6089,154.8652 Z M413.0799,111.8842 C412.4599,111.8842 409.0429,111.7802 409.0429,111.7802 C408.0059,111.7802 402.7099,111.6472 400.3609,109.0262 C399.5259,108.0932 399.1579,106.9312 399.2979,105.6672 C400.1509,97.9382 406.1249,85.7962 411.0649,83.9692 C411.3399,83.8672 411.6249,83.8162 411.9139,83.8162 C416.9789,83.8162 421.1109,100.5822 421.1109,104.6702 C421.1109,111.8842 415.0659,111.8842 413.0799,111.8842 Z M413.0799,109.9002 C416.2209,109.9002 419.1269,109.2662 419.1269,104.6702 C419.1269,99.7182 414.5729,85.8002 411.9139,85.8002 C411.8599,85.8002 411.8079,85.8102 411.7539,85.8302 C408.1919,87.1472 402.1689,97.7412 401.2699,105.8832 C401.1919,106.5922 401.3779,107.1872 401.8399,107.7022 C403.1349,109.1492 406.3909,109.7962 409.0429,109.7962 C409.0429,109.7962 412.4889,109.9002 413.0799,109.9002 Z M457.3368,36.2305 C459.9518,36.2305 462.3308,37.2085 464.1808,39.0835 C465.9498,40.8805 466.9008,43.2055 466.9008,45.7685 C466.9008,48.4105 465.9228,50.7615 464.1008,52.5315 C462.2258,54.3545 459.8208,55.3315 457.3368,55.3315 C454.8018,55.3315 452.3978,54.3015 450.5728,52.4525 C448.7768,50.6295 447.7998,48.2785 447.7998,45.7685 C447.7998,43.2315 448.8308,40.8015 450.6788,38.9515 C452.4758,37.1555 454.7478,36.2305 457.3368,36.2305 Z M457.3638,37.6305 C455.1438,37.6305 453.2158,38.4235 451.6848,39.9555 C450.0978,41.5675 449.2258,43.6285 449.2258,45.7685 C449.2258,47.9075 450.0448,49.9165 451.5768,51.4745 C453.1368,53.0335 455.1708,53.9055 457.2308,53.9055 C459.4778,53.9055 461.5108,53.0865 463.1228,51.5275 C464.6548,50.0485 465.5008,48.0405 465.5008,45.9005 C465.5008,43.6015 464.7078,41.6205 463.1768,40.0615 C461.5908,38.4765 459.6078,37.6305 457.3638,37.6305 Z M453.4528,40.2465 L457.5738,40.2465 C460.5858,40.2465 462.0928,41.2765 462.0928,43.1525 C462.0928,44.7115 461.2478,45.7685 459.7148,46.1115 L462.0928,50.9465 L459.5308,50.9465 L457.4158,46.4815 L455.7518,46.4815 L455.7518,50.9465 L453.4528,50.9465 L453.4528,40.2465 Z M455.7518,41.6995 L455.7518,45.0545 L457.2588,45.0545 C458.9478,45.0545 459.7408,44.5795 459.7408,43.4165 C459.7408,42.2015 458.8968,41.6995 457.1518,41.6995 L455.7518,41.6995 Z"/>
  </g>
</svg>
